<?xml version="1.0" encoding="utf-8" ?>
<svg baseProfile="full" height="200mm" version="1.1" viewBox="0,0,200,200" width="200mm" xmlns="http://www.w3.org/2000/svg" xmlns:ev="http://www.w3.org/2001/xml-events" xmlns:xlink="http://www.w3.org/1999/xlink"><defs /><rect fill="#1a1a1a" height="200" width="200" x="0" y="0" /><text alignment-baseline="middle" fill="#e1ed5e" style="dominant-baseline: central; font-size:9.0px; font-family:Arial;" text-anchor="middle" x="100.0" y="100.0">2023</text><line stroke="#e1ed5e" stroke-width="0.3" x1="100.0" x2="100.0" y1="15.0" y2="10.0" /><path d="M 100.0 14.0 a86.0,86.0 0 0,1 42.46469731375804,11.215312516191453" fill="none" id="id1" stroke="none" /><text fill="#e1ed5e" style="font-size:6.75px; font-family:Arial;" text-anchor="middle"><textPath startOffset="22.20632615414155" xlink:href="#id1">January</textPath></text><line stroke="#e1ed5e" stroke-width="0.3" x1="143.23703022742887" x2="145.7803849466894" y1="26.81831364943548" y2="22.513508569990506" /><path d="M 143.74570117128098 25.957352633546492 a86.0,86.0 0 0,1 28.547481713284135,27.462654790039103" fill="none" id="id2" stroke="none" /><text fill="#e1ed5e" style="font-size:6.75px; font-family:Arial;" text-anchor="middle"><textPath startOffset="19.985693538727396" xlink:href="#id2">February</textPath></text><line stroke="#e1ed5e" stroke-width="0.3" x1="172.23445277983987" x2="176.4835382374775" y1="55.19839476539836" y2="52.563006222186495" /><path d="M 173.08426987136738 54.67131705675599 a86.0,86.0 0 0,1 12.851231095245387,41.99856678651699" fill="none" id="id3" stroke="none" /><text fill="#e1ed5e" style="font-size:6.75px; font-family:Arial;" text-anchor="middle"><textPath startOffset="22.20632615414155" xlink:href="#id3">March</textPath></text><line stroke="#e1ed5e" stroke-width="0.3" x1="184.98032266829074" x2="189.97916517819016" y1="98.17113171792111" y2="98.06355123074" /><path d="M 185.9800911702706 98.14961562048488 a86.0,86.0 0 0,1 -9.607161424134198,41.387399972396054" fill="none" id="id4" stroke="none" /><text fill="#e1ed5e" style="font-size:6.75px; font-family:Arial;" text-anchor="middle"><textPath startOffset="21.466115282336823" xlink:href="#id4">April</textPath></text><line stroke="#e1ed5e" stroke-width="0.3" x1="174.80103733775053" x2="179.2010983576182" y1="140.37084112569926" y2="142.7455964860345" /><path d="M 175.68104954172406 140.8457921977663 a86.0,86.0 0 0,1 -30.038265399797805,32.042727171017184" fill="none" id="id5" stroke="none" /><text fill="#e1ed5e" style="font-size:6.75px; font-family:Arial;" text-anchor="middle"><textPath startOffset="22.206326154141568" xlink:href="#id5">May</textPath></text><line stroke="#e1ed5e" stroke-width="0.3" x1="143.8653032363475" x2="146.44561519142675" y1="172.8068346515853" y2="177.08958963109032" /><path d="M 144.38136562736335 173.6633856474863 a86.0,86.0 0 0,1 -40.68145358897372,12.25698825130547" fill="none" id="id6" stroke="none" /><text fill="#e1ed5e" style="font-size:6.75px; font-family:Arial;" text-anchor="middle"><textPath startOffset="21.466115282336833" xlink:href="#id6">June</textPath></text><path d="M 107.93186726928326 119.44442032107085 l 3.4405351296930324 8.434232308731819 a30.108982194312794,30.108982194312794 0 0,0 -0.48157012099525665,0.19162668961863757 l -3.2948439326559096 -8.492205842756526" fill="#ff5808" stroke="none" /><path d="M 107.59598834532513 119.57807347666477 l 3.3012016669011133 8.508592411895261 a30.126558895734597,30.126558895734597 0 0,0 -0.4850803194603485,0.1834158701469197 l -3.1542511266804896 -8.564156532148813" fill="#ff5808" stroke="none" /><path d="M 107.2578585660854 119.70592522655815 l 3.1224999905050352 8.47794852607723 a30.034689668246443,30.034689668246443 0 0,0 -0.48667701888859355,0.17450506383449774 l -2.976103410986707 -8.530441130951688" fill="#ff5708" stroke="none" /><path d="M 106.91757812671514 119.82793768551818 l 4.948607144558559 14.184252392247357 a36.022707099526066,36.022707099526066 0 0,0 -0.5872220448430862,0.19921760030393976 l -4.703715366778246 -14.267332979449419" fill="#ffaa0f" stroke="none" /><path d="M 106.57524785965236 119.94407469862006 l 2.870274437760641 8.70613078231008 a30.167070881516587,30.167070881516587 0 0,0 -0.49456564693499,0.15834430228021093 l -2.7199874457347106 -8.754247931249997" fill="#ff5908" stroke="none" /><path d="M 106.2309692047433 120.05430185196036 l 2.691002099159314 8.66095893070989 a30.069382663507106,30.069382663507106 0 0,0 -0.49560789728440124,0.14932259391821584 l -2.541519227434667 -8.705996893733833" fill="#ff5708" stroke="none" /><path d="M 105.88484417918355 120.15858648285463 l 0.9085985494389949 3.112412475057814 a24.242323663507108,24.242323663507108 0 0,0 -0.40157851501210917,0.11349009960178846 l -0.8548888663222799 -3.127591367998121" fill="#ff0200" stroke="none" /><path d="M 104.83641907484287 120.43548508189849 l 2.0968362517162618 8.85983312819595 a30.10457936018957,30.10457936018957 0 0,0 -0.5052979826414452,0.11500417574020147 l -1.9440181196819546 -8.894614037513836" fill="#ff5808" stroke="none" /><path d="M 103.7750983002368 120.6578951692458 l 1.627799879604 8.907561232845506 a30.05507479620853,30.05507479620853 0 0,0 -0.5097212286263875,0.0886215692399387 l -1.4742296795055627 -8.93426138060645" fill="#ff5708" stroke="none" /><line stroke="#e1ed5e" stroke-width="0.3" x1="102.19456741930631" x2="102.32365962044197" y1="184.97166512339345" y2="189.96999836594603" /><path d="M 102.22038585953345 185.97133177190398 a86.0,86.0 0 0,1 -42.740103519485714,-10.115201625700543" fill="none" id="id7" stroke="none" /><text fill="#e1ed5e" style="font-size:6.75px; font-family:Arial;" text-anchor="middle"><textPath startOffset="22.20632615414155" xlink:href="#id7">July</textPath></text><path d="M 94.11515582081647 120.15858648285463 l -3.361830304459556 11.515979840698494 a32.99665347867299,32.99665347867299 0 0,0 -0.5438555966043829,-0.16385922994141375 l 3.559560875504185 -11.456405241651355" fill="#ff810b" stroke="none" /><path d="M 92.40401165467489 119.57807347666478 l -4.504109869255303 11.60899542737214 a33.452139597156396,33.452139597156396 0 0,0 -0.5350413643804972,-0.21290400088232025 l 4.703272309677659 -11.529744582083753" fill="#ff870c" stroke="none" /><line stroke="#e1ed5e" stroke-width="0.3" x1="58.666819895761336" x2="56.23545636021788" y1="174.27360380694188" y2="178.64263932499728" /><path d="M 58.180547188652646 175.14741091055294 a86.0,86.0 0 0,1 -31.652253787137756,-30.449443065178592" fill="none" id="id8" stroke="none" /><text fill="#e1ed5e" style="font-size:6.75px; font-family:Arial;" text-anchor="middle"><textPath startOffset="22.20632615414155" xlink:href="#id8">August</textPath></text><path d="M 85.18274418774928 114.88116024355367 l -4.263505108895699 4.281892917866094 a27.04252288151659,27.04252288151659 0 0,0 -0.3270334384719711,-0.3312831465721681 l 4.336579172423204 -4.207869277313261" fill="#ff2b04" stroke="none" /><path d="M 84.9287848128048 114.62390073753433 l -3.23378514336067 3.1378062323201816 a25.505906601895735,25.505906601895735 0 0,0 -0.3030265046815801,-0.31772207867463576 l 3.287318199421208 -3.081677037063046" fill="#ff1502" stroke="none" /><line stroke="#e1ed5e" stroke-width="0.3" x1="26.63291911575756" x2="22.317208475507996" y1="142.92168965132927" y2="145.44649492493687" /><path d="M 25.769776987707644 143.4266507060508 a86.0,86.0 0 0,1 -11.730757126820373,-40.83630448921669" fill="none" id="id9" stroke="none" /><text fill="#e1ed5e" style="font-size:6.75px; font-family:Arial;" text-anchor="middle"><textPath startOffset="21.46611528233685" xlink:href="#id9">September</textPath></text><path d="M 81.02952815118164 109.00673069616217 l -13.563239948361137 6.439505066392238 a36.01428331279621,36.01428331279621 0 0,0 -0.2610613369775923,-0.5623028947428991 l 13.672075902178555 -6.205082104370511" fill="#ffaa0f" stroke="none" /><path d="M 80.87730276802145 108.67885076344099 l -13.686336630982076 6.2115543470443475 a36.02994403791469,36.02994403791469 0 0,0 -0.2514528340661651,-0.5669597592097135 l 13.79123054977952 -5.975046251341938" fill="#ffaa0f" stroke="none" /><path d="M 80.73074385275274 108.34839909993369 l -13.84325644549523 5.997586454121292 a36.0866428436019,36.0866428436019 0 0,0 -0.24203658269452374,-0.5721029850391466 l 13.94444400938206 -5.758408943415986" fill="#ffab0f" stroke="none" /><path d="M 80.45479744820244 107.68017299344265 l -16.775362231091954 6.591780444383327 a39.02399365876777,39.02399365876777 0 0,0 -0.24028693396120474,-0.6273133612977282 l 16.886343444646666 -6.302043516252441" fill="#ffd213" stroke="none" /><path d="M 80.20201598880116 107.00284435728193 l -16.99978480400312 6.013079262129965 a39.03191075829383,39.03191075829383 0 0,0 -0.21859574242766663,-0.6353415498936844 l 17.100771377374016 -5.719565009146984" fill="#ffd213" stroke="none" /><path d="M 80.0844068197444 106.66101706037122 l -17.14552058260968 5.734531935656023 a39.07909656398104,39.07909656398104 0 0,0 -0.20787799568956894,-0.6397826850747774 l 17.241690829315502 -5.4385503506034425" fill="#ffd313" stroke="none" /><path d="M 79.97269907076064 106.31721596034903 l -8.659752717938115 2.731547714578246 a30.080345260663506,30.080345260663506 0 0,0 -0.1515092953500145,-0.49514114347301025 l 8.705488785794259 -2.5820795985531877" fill="#ff5708" stroke="none" /><path d="M 79.86692584326677 105.97154293290107 l -17.287634344241678 5.127575147802711 a39.03203616113744,39.03203616113744 0 0,0 -0.18550879077187435,-0.6457804371438806 l 17.373335771899654 -4.829237235154235" fill="#ffd213" stroke="none" /><path d="M 79.76711848015287 105.62410040840567 l -14.437947307301128 4.01329218815815 a35.98535407109005,35.98535407109005 0 0,0 -0.16075501375863332,-0.5982292085288604 l 14.504890397401537 -3.764172046453751" fill="#ffaa0f" stroke="none" /><path d="M 79.50377843672027 104.57218783832718 l -32.10317937978 7.161406109838053 a53.89224625592417,53.89224625592417 0 0,0 -0.19418136277398387,-0.907150680575723 l 32.22169478127842 -6.607741609846166" fill="#79ff26" stroke="none" /><path d="M 79.35854240842038 103.8639653848113 l -29.51853262609568 5.525704169466457 a51.031269952606635,51.031269952606635 0 0,0 -0.15419598240200721,-0.864812957257346 l 29.609275050836878 -5.016772461475897" fill="#99ff23" stroke="none" /><path d="M 79.18660465613746 102.79330883721812 l -11.883468243005622 1.5948477560522982 a32.99001071090048,32.99001071090048 0 0,0 -0.07069050913908745,-0.5634729108508679 l 11.909160261391557 -1.3900570909140215" fill="#ff810b" stroke="none" /><path d="M 79.1416061653843 102.43462659150553 l -38.974145143302955 4.549127363278104 a60.238737867298575,60.238737867298575 0 0,0 -0.11134900783285548,-1.0309535216440746 l 39.046676452636866 -3.8775775197492477" fill="#36ff2e" stroke="none" /><path d="M 79.10278846688536 102.07522291339032 l -15.450628180003594 1.5343433536387527 a36.52662618483412,36.52662618483412 0 0,0 -0.05674742504364593,-0.6262031066699792 l 15.474750201324316 -1.2681588584202073" fill="#ffb110" stroke="none" /><path d="M 79.07016306316243 101.71520430193888 l -3.1302139388907757 0.2565216551938287 a24.1407073507109,24.1407073507109 0 0,0 -0.030375264975378954,-0.4144463573286379 l 3.13416576253049 -0.20260216136843012" fill="#ff0000" stroke="none" /><line stroke="#e1ed5e" stroke-width="0.3" x1="15.007084014347285" x2="10.007500721073583" y1="101.09737516637583" y2="101.16192664675087" /><path d="M 14.007167355692545 101.11028546245083 a86.0,86.0 0 0,1 10.666146001902534,-42.60595125391555" fill="none" id="id10" stroke="none" /><text fill="#e1ed5e" style="font-size:6.75px; font-family:Arial;" text-anchor="middle"><textPath startOffset="22.20632615414155" xlink:href="#id10">October</textPath></text><path d="M 79.03285615573316 98.82574320788736 l -16.512700765806155 -0.9247874281013954 a37.53857667298578,37.53857667298578 0 0,0 0.041684639169026205,-0.6448429178868074 l 16.494335535632715 1.2088894102412147" fill="#ffbe11" stroke="none" /><path d="M 79.05617556472873 98.46500227214037 l -16.81878952151708 -1.2326690276012975 a37.863900909952605,37.863900909952605 0 0,0 0.05323577233208404,-0.649611263718079 l 16.795079265365498 1.5219942085271547" fill="#ffc312" stroke="none" /><path d="M 79.08570108090925 98.10471618934814 l -15.465089833630074 -1.4014686557434903 a36.528461545023696,36.528461545023696 0 0,0 0.06213817337116307,-0.625722925879394 l 15.438674534576682 1.6674671123273146" fill="#ffb110" stroke="none" /><path d="M 79.12142395522702 97.74499172005258 l -8.934351355525497 -0.964962181303229 a29.98631104265403,29.98631104265403 0 0,0 0.059843605262962576,-0.5127034640192034 l 8.916417397258945 1.1186093836472943" fill="#ff5608" stroke="none" /><path d="M 79.16333360222342 97.38593545837743 l -14.831313493678042 -1.8606628320185157 a35.94757258293839,35.94757258293839 0 0,0 0.08230967209269502,-0.6133026620841029 l 14.797087822527512 2.115683836167278" fill="#ffa90f" stroke="none" /><path d="M 79.21141760316559 97.0276538004421 l -62.36574719050324 -8.91703859867371 a84.0,84.0 0 0,0 0.21697642624279112,-1.4296035504316318 l 62.20301487082115 9.989241261497433" fill="#4dd2ff" stroke="none" /><path d="M 79.54389044137918 95.25157060432595 l -5.93959331415107 -1.3787440573898404 a27.097516208530806,27.097516208530806 0 0,0 0.10938002708973048,-0.45345082766793304 l 5.914980486800525 1.4807801167171704" fill="#ff2c04" stroke="none" /><line stroke="#e1ed5e" stroke-width="0.3" x1="26.266209847984243" x2="21.928928074336255" y1="57.711370442889674" y2="55.22380399835377" /><path d="M 25.398753493254645 57.213857153982495 a86.0,86.0 0 0,1 29.58750427330803,-30.492523968695096" fill="none" id="id11" stroke="none" /><text fill="#e1ed5e" style="font-size:6.75px; font-family:Arial;" text-anchor="middle"><textPath startOffset="21.46611528233685" xlink:href="#id11">November</textPath></text><line stroke="#e1ed5e" stroke-width="0.3" x1="56.762969772571076" x2="54.21961505331055" y1="26.818313649435495" y2="22.513508569990535" /><path d="M 56.25429882871897 25.957352633546506 a86.0,86.0 0 0,1 42.265352541879196,-11.944610805530505" fill="none" id="id12" stroke="none" /><text fill="#e1ed5e" style="font-size:6.75px; font-family:Arial;" text-anchor="middle"><textPath startOffset="22.20632615414155" xlink:href="#id12">December</textPath></text></svg>